# xmcd
#
# Track frame offsets:
#  150
#  11588
#  24325
#  36045
#  55190
#  67213
#  79665
#  89283
#  103090
#  121158
#  133960
#  147315
#
# Disc length: 2171 seconds
#
# Revision: 0
# Processed by: cddbd v1.5.1PL2 Copyright (c) Steve Scherf et al.
# Submitted via: Collectorz.com_Music_Collector 6.9
#
DISCID=a108790c
DTITLE=David HEAVENER - Hitman
DYEAR=1995
DGENRE=Country
TTITLE0=Hitman
TTITLE1=Honky Tonkin' Boy
TTITLE2=Put In A Quater
TTITLE3=Bomb
TTITLE4=Cheat' Em County
TTITLE5=Theme To Eye Of The Stranger
TTITLE6=Honky Tonk Tonight
TTITLE7=Girls In Dixieland
TTITLE8=Wish
TTITLE9=Hot Blooded American Girls
TTITLE10=Love Is
TTITLE11=I'm A Honky Tonk Man
EXTD=
EXTT0=
EXTT1=
EXTT2=
EXTT3=
EXTT4=
EXTT5=
EXTT6=
EXTT7=
EXTT8=
EXTT9=
EXTT10=
EXTT11=
PLAYORDER=
